<?xml version="1.0" encoding="UTF-8"?>
<svg width="224px" height="58px" viewBox="0 0 224 58" version="1.1" xmlns="http://www.w3.org/2000/svg" xmlns:xlink="http://www.w3.org/1999/xlink">
    <g stroke="none" stroke-width="1" fill="none" fill-rule="evenodd">
        <g transform="translate(-571.000000, -56.000000)" fill-rule="nonzero">
            <g transform="translate(571.000000, 56.000000)">
                <polygon fill="#FFFFFF" points="223.676843 41.8888889 220.88799 41.8888889 211.653974 30.8236268 202.419959 41.8888889 199.631106 41.8888889 210.259548 29.1526642 199.376308 16.1111111 202.165161 16.1111111 211.653974 27.4817016 221.142787 16.1111111 223.931641 16.1111111 213.048401 29.1526642"></polygon>
                <path d="M197.562899,30.0740741 L187.536798,30.0740741 L189.329438,27.9259259 L199.752027,27.9259259 L199.752027,29 C199.752027,36.1183368 194.013073,41.8888889 186.933715,41.8888889 C179.854357,41.8888889 174.115403,36.1183368 174.115403,29 C174.115403,21.8816632 179.854357,16.1111111 186.933715,16.1111111 C190.48557,16.1111111 193.700015,17.5636914 196.021537,19.9102812 L194.642131,21.5644087 C192.698117,19.5273389 189.963193,18.2592593 186.933715,18.2592593 C181.034249,18.2592593 176.251788,23.0680527 176.251788,29 C176.251788,34.9319473 181.034249,39.7407407 186.933715,39.7407407 C192.472666,39.7407407 197.026961,35.501717 197.562899,30.0740741 Z" fill="#FFFFFF"></path>
                <g transform="translate(75.254173, 16.111111)" fill="#FFFFFF">
                    <path d="M34.8764902,7.04592594 C32.4415807,7.05038846 30.1490457,8.20031768 28.6809728,10.1535802 L28.6809728,7.46839509 L26.6656494,7.46839509 L26.6656494,30.7901235 L28.7165792,30.7901235 L28.7165792,22.4266667 C30.1861293,24.3772331 32.4784316,25.5243962 34.9120966,25.5271605 C39.6192656,25.5271605 43.4576379,21.3812345 43.4576379,16.282963 C43.4576379,11.1846913 39.5907805,7.04592594 34.8764902,7.04592594 Z M34.8764902,23.5150618 C31.265999,23.5150618 28.3320299,20.271358 28.3320299,16.2758025 C28.3320299,12.2802469 31.265999,9.03654321 34.8764902,9.03654321 C38.4869814,9.03654321 41.4209506,12.2802469 41.4209506,16.2758025 C41.4209506,20.271358 38.4869814,23.5222222 34.8764902,23.5222222 L34.8764902,23.5150618 Z"></path>
                    <path d="M12.3945955,0.236296296 C5.65073917,0.236296296 0.160228897,6.02197533 0.160228897,13.1251852 C0.160228897,20.2283951 5.65073917,26.0140741 12.3945955,26.0140741 C19.1384517,26.0140741 24.628962,20.2283951 24.628962,13.1251852 C24.628962,6.02197533 19.1384517,0.236296296 12.3945955,0.236296296 Z M12.3945955,24.0879012 C6.69756794,24.0879012 2.09009696,19.1758025 2.09009696,13.1323457 C2.09009696,7.08888891 6.71181054,2.14814815 12.3945955,2.14814815 C18.0773804,2.14814815 22.6990939,7.06024691 22.6990939,13.1037037 C22.6990939,19.1471605 18.0773804,24.0807407 12.3945955,24.0807407 L12.3945955,24.0879012 Z"></path>
                    <path d="M71.6650454,7.11753085 C70.9774644,7.14762623 70.3055519,7.33366442 69.6995708,7.66172842 C68.4507723,8.332009 67.4754719,9.42164291 66.9436339,10.7407407 L66.9009062,10.8338272 L66.9009062,10.8338272 L66.9009062,7.61160492 L66.9009062,7.61160492 L66.9009062,7.61160492 L64.8855825,7.61160492 L64.8855825,25.0617284 L66.9080275,25.0617284 L66.9080275,24.9471605 C66.9080275,21.8037037 66.9080275,19.0397531 66.9080275,15.8962963 C66.8852271,14.7461528 67.0960438,13.6034245 67.5275788,12.5380247 C67.89399,11.5938212 68.4800509,10.7516312 69.2366873,10.0819753 C70.0930739,9.29544443 71.2620482,8.94942475 72.4056591,9.14395061 L72.9967254,9.25851854 C73.1106659,8.67851854 73.3883961,7.94098764 73.5023366,7.36098764 C72.9047282,7.19145698 72.2859301,7.10946093 71.6650454,7.11753085 L71.6650454,7.11753085 Z"></path>
                    <path d="M53.7763789,7.0674074 C49.0692098,7.0674074 45.2308377,11.2133333 45.2308377,16.3116049 C45.2308377,21.4098765 49.0620889,25.5558025 53.7763789,25.5558025 C57.1339471,25.4965252 60.1457627,23.4654533 61.4744874,20.3644444 L59.7084089,19.3333333 C58.7550952,21.8133203 56.4125816,23.47397 53.7692575,23.5437037 C50.3581625,23.5437037 47.5523764,20.6437037 47.2532825,16.9560494 L62.2934353,16.9560494 C62.2934353,16.7412346 62.2934353,16.5264198 62.2934353,16.3044444 C62.3147989,10.8696296 58.8040056,7.0674074 53.7763789,7.0674074 Z M53.7763789,9.07234569 C57.3370209,9.07234569 59.8365917,11.4925926 60.2567479,15.1874074 L47.3102527,15.1874074 C47.8016212,11.7360494 50.5077094,9.07950618 53.7763789,9.07950618 L53.7763789,9.07234569 Z"></path>
                    <path d="M87.7876333,7.46839509 L87.7876333,10.1535802 C86.3195604,8.20031768 84.0270252,7.05038846 81.5921158,7.04592594 C76.8849467,7.04592594 73.0465745,11.1918519 73.0465745,16.2901235 C73.0465745,21.3883951 76.8778253,25.534321 81.5921158,25.534321 C84.0257807,25.5315566 86.3180832,24.3843935 87.7876333,22.4338272 L87.7876333,25.0617284 L89.8029565,25.0617284 L89.8029565,7.46839509 L87.7876333,7.46839509 Z M81.5921158,23.5293827 C77.9816247,23.5293827 75.0476554,20.285679 75.0476554,16.2901235 C75.0476554,12.2945679 77.9816247,9.05086419 81.5921158,9.05086419 C85.202607,9.05086419 88.1365763,12.2945679 88.1365763,16.2901235 C88.1365763,20.285679 85.202607,23.5222222 81.5921158,23.5222222 L81.5921158,23.5293827 Z"></path>
                </g>
                <g fill="#FA1E4E">
                    <g>
                        <path d="M46.3361945,48.4142124 C43.2704613,50.4370702 39.7656948,51.5091644 36.1907102,51.5091644 C30.3394338,51.5091644 24.7915268,48.6465908 20.9697565,43.6555957 C20.9561219,43.6384586 20.9431691,43.6226926 20.9295345,43.6055555 C17.9981017,40.1260482 16.2474228,35.014408 16.1267568,29.6121233 L16.126075,28.3446669 C16.2474228,22.9108501 17.9981017,17.7992098 20.9690748,14.2703478 C24.7915268,9.27935243 30.3401156,6.41677906 36.1907102,6.41677906 C39.7656948,6.41677906 43.271143,7.4888731 46.3382397,9.51310185 C51.8118384,14.4753069 54.9511984,21.5570228 54.9511984,28.9629718 C54.9511984,36.3696061 51.8111567,43.4520075 46.3361945,48.4142124 M27.6677395,55.1168567 C13.7618404,54.4608506 2.86781797,42.9728554 2.86781797,28.9629718 C2.86781797,14.5246617 14.5499186,2.77755446 28.935073,2.77823994 C28.9412085,2.77823994 29.0005189,2.77892544 29.0073364,2.77892544 C31.2849914,2.7871512 33.5306053,3.09493268 35.6930483,3.68101989 C29.1743598,3.83730982 23.0449382,7.06661613 18.8482172,12.5484167 C15.5207001,16.4974793 13.5348248,22.2329082 13.3998425,28.3138203 L13.3998425,29.64297 C13.5348248,35.6793257 15.5125193,41.4037868 18.8277653,45.353535 C23.0626632,50.8689242 29.1852675,54.0886337 35.6950935,54.2449234 C33.1072519,54.9468573 30.3612491,55.2457274 27.6677395,55.1168567 M48.0834651,7.39976045 C42.8355185,2.67815955 36.0645904,0.0637307151 28.9875661,0.0369969124 C28.9787036,0.0363114302 28.9180299,0.0356259481 28.909849,0.0356259481 C13.0467071,0.0356259481 0.140903723,13.0124881 0.140903723,28.9629718 C0.140903723,44.4397872 12.1761398,57.1314887 27.5416199,57.8560435 C27.9949693,57.8772933 28.4510457,57.8889464 28.909849,57.8889464 C35.9916453,57.8889464 42.7987051,55.2765742 48.0752843,50.5316672 L48.0814197,50.527554 C54.1801634,45.0423259 57.6781128,37.1825879 57.6781128,28.9629718 C57.6781128,20.744041 54.180845,12.8843029 48.0834651,7.39976045"></path>
                    </g>
                    <path d="M34.182165,10.7407407 C39.3144168,14.0546208 42.8482562,20.9841413 42.8482562,29 C42.8482562,37.0158588 39.3144168,43.9460651 34.182165,47.2592593 C40.7333172,46.713347 45.9322842,38.7482389 45.9322842,29 C45.9322842,19.2517612 40.7333172,11.2866531 34.182165,10.7407407"></path>
                </g>
            </g>
        </g>
    </g>
</svg>
